<?xml version="1.0" encoding="UTF-8"?>
<svg xmlns="http://www.w3.org/2000/svg" xmlns:xlink="http://www.w3.org/1999/xlink" width="50px" height="50px" viewBox="0 0 50 50" version="1.1">
<g id="surface1">
<path style="fill:none;stroke-width:1.91;stroke-linecap:butt;stroke-linejoin:miter;stroke:rgb(0.784314%,0.784314%,0.784314%);stroke-opacity:1;stroke-miterlimit:10;" d="M 16.77 7.23 L 16.77 20.589375 C 16.771875 21.0975 16.573125 21.585 16.213125 21.943125 C 15.855 22.303125 15.3675 22.501875 14.859375 22.5 L 5.319375 22.5 C 4.813125 22.501875 4.325625 22.303125 3.965625 21.943125 C 3.6075 21.585 3.406875 21.0975 3.410625 20.589375 L 3.410625 7.23 L 6.27 7.23 C 6.8025 7.23 7.243125 7.648125 7.269375 8.180625 L 7.269375 9.609375 C 7.269375 10.400625 7.910625 11.04 8.7 11.04 C 9.489375 11.04 10.130625 10.400625 10.130625 9.609375 L 10.130625 8.180625 C 10.156875 7.648125 10.5975 7.23 11.13 7.23 Z M 16.77 7.23 " transform="matrix(2.083333,0,0,2.083333,0,0)"/>
<path style="fill:none;stroke-width:1.91;stroke-linecap:butt;stroke-linejoin:miter;stroke:rgb(0.784314%,0.784314%,0.784314%);stroke-opacity:1;stroke-miterlimit:10;" d="M 16.77 9.140625 L 19.629375 9.140625 C 20.67 9.135 21.523125 9.96 21.549375 11.000625 L 21.549375 14.82 C 21.549375 15.875625 20.694375 16.730625 19.640625 16.730625 L 16.77 16.730625 Z M 16.77 9.140625 " transform="matrix(2.083333,0,0,2.083333,0,0)"/>
<path style="fill:none;stroke-width:1.91;stroke-linecap:butt;stroke-linejoin:miter;stroke:rgb(0.784314%,0.784314%,0.784314%);stroke-opacity:1;stroke-miterlimit:10;" d="M 8.180625 11.049375 L 8.180625 19.640625 " transform="matrix(2.083333,0,0,2.083333,0,0)"/>
<path style="fill:none;stroke-width:1.91;stroke-linecap:butt;stroke-linejoin:miter;stroke:rgb(0.784314%,0.784314%,0.784314%);stroke-opacity:1;stroke-miterlimit:10;" d="M 12 11.049375 L 12 19.640625 " transform="matrix(2.083333,0,0,2.083333,0,0)"/>
<path style="fill:none;stroke-width:1.91;stroke-linecap:butt;stroke-linejoin:miter;stroke:rgb(0.784314%,0.784314%,0.784314%);stroke-opacity:1;stroke-miterlimit:10;" d="M 11.049375 7.23 L 16.299375 7.23 C 17.045625 7.168125 17.619375 6.54375 17.619375 5.795625 C 17.619375 5.045625 17.045625 4.423125 16.299375 4.359375 L 14.859375 4.359375 C 14.855625 3.32625 14.0325 2.4825 12.999375 2.450625 C 12.78 2.454375 12.564375 2.4975 12.36 2.58 C 11.77125 1.805625 10.828125 1.389375 9.85875 1.47375 C 8.89125 1.56 8.034375 2.135625 7.59 3 C 7.24125 2.649375 6.765 2.454375 6.27 2.46 C 5.221875 2.465625 4.370625 3.31125 4.359375 4.359375 L 3.890625 4.359375 C 3.34875 4.314375 2.8275 4.57875 2.544375 5.04 C 2.259375 5.503125 2.259375 6.08625 2.544375 6.549375 C 2.8275 7.0125 3.34875 7.275 3.890625 7.23 L 6.27 7.23 " transform="matrix(2.083333,0,0,2.083333,0,0)"/>
</g>
</svg>
