<?xml version="1.0" encoding="UTF-8"?>
<svg xmlns="http://www.w3.org/2000/svg" xmlns:xlink="http://www.w3.org/1999/xlink" width="11px" height="15px" viewBox="0 0 11 14" version="1.1">
<g id="surface1">
<path style=" stroke:none;fill-rule:nonzero;fill:rgb(0%,0%,0%);fill-opacity:1;" d="M 9.8125 4.117188 C 10.171875 3.777344 10.171875 3.222656 9.8125 2.878906 C 9.457031 2.539062 8.875 2.539062 8.515625 2.878906 L 5.5 5.761719 L 2.480469 2.882812 C 2.121094 2.539062 1.542969 2.539062 1.183594 2.882812 C 0.824219 3.222656 0.824219 3.777344 1.183594 4.121094 L 4.203125 7 L 1.1875 9.882812 C 0.828125 10.222656 0.828125 10.777344 1.1875 11.121094 C 1.542969 11.460938 2.125 11.460938 2.484375 11.121094 L 5.5 8.238281 L 8.519531 11.117188 C 8.878906 11.460938 9.457031 11.460938 9.816406 11.117188 C 10.175781 10.777344 10.175781 10.222656 9.816406 9.878906 L 6.796875 7 Z M 9.8125 4.117188 "/>
</g>
</svg>
