<?xml version="1.0" encoding="UTF-8"?>
<svg xmlns="http://www.w3.org/2000/svg" xmlns:xlink="http://www.w3.org/1999/xlink" width="44px" height="50px" viewBox="0 0 44 50" version="1.1">
<g id="surface1">
<path style=" stroke:none;fill-rule:nonzero;fill:rgb(0%,0%,0%);fill-opacity:1;" d="M 40.855469 0 C 39.285156 0 28.285156 3.125 28.285156 17.1875 L 28.285156 28.125 C 28.285156 31.570312 31.105469 34.375 34.570312 34.375 L 37.714844 34.375 L 37.714844 46.875 C 37.714844 48.601562 39.117188 50 40.855469 50 C 42.59375 50 44 48.601562 44 46.875 L 44 3.125 C 44 1.398438 42.59375 0 40.855469 0 Z M 6.285156 1.5625 C 6.285156 0.761719 5.6875 0.0976562 4.882812 0.0078125 C 4.074219 -0.078125 3.359375 0.449219 3.183594 1.21875 L 0.207031 14.53125 C 0.0703125 15.148438 0 15.773438 0 16.398438 C 0 20.878906 3.449219 24.5625 7.855469 24.960938 L 7.855469 46.875 C 7.855469 48.601562 9.261719 50 11 50 C 12.738281 50 14.144531 48.601562 14.144531 46.875 L 14.144531 24.960938 C 18.550781 24.5625 22 20.878906 22 16.394531 C 22 15.769531 21.929688 15.144531 21.792969 14.53125 L 18.816406 1.21875 C 18.640625 0.4375 17.90625 -0.078125 17.109375 0.0078125 C 16.3125 0.0976562 15.714844 0.761719 15.714844 1.5625 L 15.714844 14.667969 C 15.714844 15.195312 15.28125 15.625 14.75 15.625 C 14.25 15.625 13.839844 15.242188 13.789062 14.746094 L 12.5625 1.425781 C 12.492188 0.617188 11.816406 0 11 0 C 10.183594 0 9.507812 0.617188 9.4375 1.425781 L 8.21875 14.746094 C 8.171875 15.242188 7.757812 15.625 7.257812 15.625 C 6.726562 15.625 6.296875 15.195312 6.296875 14.667969 L 6.296875 1.5625 Z M 11.03125 16.40625 L 10.96875 16.40625 L 11 16.335938 Z M 11.03125 16.40625 "/>
</g>
</svg>
