<?xml version="1.0" encoding="UTF-8"?>
<svg xmlns="http://www.w3.org/2000/svg" xmlns:xlink="http://www.w3.org/1999/xlink" width="50px" height="50px" viewBox="0 0 50 50" version="1.1">
<g id="surface1">
<path style="fill:none;stroke-width:2;stroke-linecap:round;stroke-linejoin:round;stroke:rgb(0%,0%,0%);stroke-opacity:1;stroke-miterlimit:10;" d="M 27.7 9.9 C 25.1 8.7 21.4 8 17.3 8 C 9.4 8 3 10.7 3 14 C 3 16.2 4.4 18.5 7.8 19.5 C 9.9 20.1 12.2 20 14.2 19.3 C 16.4 18.6 18.3 17.3 20.1 15.9 C 21.5 14.8 23.3 14.1 25.2 14.1 L 26.5 14.1 C 29.1 14 29.9 10.9 27.7 9.9 Z M 27.7 9.9 " transform="matrix(1.5625,0,0,1.5625,0,0)"/>
<path style="fill:none;stroke-width:2;stroke-linecap:round;stroke-linejoin:round;stroke:rgb(0%,0%,0%);stroke-opacity:1;stroke-miterlimit:10;" d="M 15 14 C 15 12.895 13.4325 12 11.5 12 C 9.5675 12 8 12.895 8 14 C 8 15.105 9.5675 16 11.5 16 C 13.4325 16 15 15.105 15 14 Z M 15 14 " transform="matrix(1.5625,0,0,1.5625,0,0)"/>
<path style="fill:none;stroke-width:2;stroke-linecap:round;stroke-linejoin:round;stroke:rgb(0%,0%,0%);stroke-opacity:1;stroke-miterlimit:10;" d="M 29 12 L 29 17 C 28.9 18 28 19 26.6 19 L 25.3 19 C 23.4 19 21.5 19.7 20.2 20.8 C 18.4 22.3 16.5 23.5 14.3 24.2 C 12.2 24.9 10 25 7.9 24.4 C 4.4 23.5 3 21.2 3 19 L 3 14 " transform="matrix(1.5625,0,0,1.5625,0,0)"/>
</g>
</svg>
