<?xml version="1.0" encoding="UTF-8"?>
<svg xmlns="http://www.w3.org/2000/svg" xmlns:xlink="http://www.w3.org/1999/xlink" width="50px" height="50px" viewBox="0 0 50 50" version="1.1">
<g id="surface1">
<path style=" stroke:none;fill-rule:nonzero;fill:rgb(0%,0%,0%);fill-opacity:1;" d="M 49.089844 39.425781 L 42.0625 39.425781 C 40.46875 36.492188 38.140625 34.011719 35.300781 32.230469 C 33.492188 31.097656 31.511719 30.277344 29.449219 29.792969 L 29.449219 21.351562 C 29.449219 19.269531 27.910156 17.542969 25.910156 17.246094 L 25.910156 12.183594 C 26.933594 11.859375 27.679688 10.898438 27.679688 9.769531 L 27.679688 2.925781 C 27.679688 1.53125 26.542969 0.394531 25.148438 0.394531 L 24.851562 0.394531 C 23.457031 0.394531 22.320312 1.53125 22.320312 2.925781 L 22.320312 9.769531 C 22.320312 10.898438 23.066406 11.859375 24.089844 12.183594 L 24.089844 17.246094 C 22.089844 17.542969 20.550781 19.269531 20.550781 21.351562 L 20.550781 29.792969 C 18.488281 30.277344 16.507812 31.097656 14.699219 32.230469 C 11.859375 34.011719 9.53125 36.492188 7.9375 39.425781 L 0.910156 39.425781 C 0.40625 39.425781 0 39.832031 0 40.335938 C 0 40.839844 0.40625 41.246094 0.910156 41.246094 L 4.066406 41.246094 L 6.96875 46.472656 C 8.042969 48.40625 10.082031 49.605469 12.289062 49.605469 L 37.710938 49.605469 C 39.917969 49.605469 41.957031 48.40625 43.03125 46.472656 L 45.933594 41.246094 L 49.089844 41.246094 C 49.59375 41.246094 50 40.839844 50 40.335938 C 50 39.832031 49.59375 39.425781 49.089844 39.425781 Z M 39.957031 39.425781 L 34.425781 39.425781 C 35.644531 38.429688 36.714844 37.269531 37.269531 36.070312 C 38.285156 37.0625 39.191406 38.1875 39.957031 39.425781 Z M 33.875 33.488281 C 34.542969 33.878906 35.1875 34.3125 35.800781 34.789062 C 35.476562 36.132812 33.632812 38.007812 31.246094 39.425781 L 24.585938 39.425781 C 24.585938 39.320312 24.585938 39.214844 24.585938 39.109375 C 25.40625 38.945312 26.742188 38.617188 28.179688 38.039062 C 30.890625 36.941406 32.835938 35.382812 33.875 33.488281 Z M 30.460938 31.960938 C 31.074219 32.15625 31.671875 32.390625 32.253906 32.652344 C 30.589844 35.660156 26.269531 36.886719 24.398438 37.285156 C 24.253906 36.546875 24.039062 35.855469 23.78125 35.214844 C 26.71875 34.769531 29.460938 32.765625 30.460938 31.960938 Z M 24.144531 2.925781 C 24.144531 2.535156 24.460938 2.21875 24.851562 2.21875 L 25.148438 2.21875 C 25.539062 2.21875 25.859375 2.535156 25.859375 2.925781 L 25.859375 9.769531 C 25.859375 10.160156 25.539062 10.476562 25.148438 10.476562 L 24.851562 10.476562 C 24.460938 10.476562 24.144531 10.160156 24.144531 9.769531 Z M 22.375 21.351562 C 22.375 20.066406 23.417969 19.019531 24.703125 19.019531 L 25.296875 19.019531 C 26.582031 19.019531 27.625 20.066406 27.625 21.351562 L 27.625 23.742188 L 22.375 23.742188 Z M 27.625 25.566406 L 27.625 29.457031 C 27.058594 29.378906 26.488281 29.328125 25.910156 29.300781 L 25.910156 25.566406 Z M 22.375 25.566406 L 24.089844 25.566406 L 24.089844 29.300781 C 23.511719 29.328125 22.941406 29.378906 22.375 29.457031 Z M 25 31.097656 C 26.078125 31.097656 27.136719 31.195312 28.167969 31.382812 C 26.851562 32.273438 24.84375 33.382812 22.910156 33.472656 C 22.417969 32.65625 21.890625 31.976562 21.4375 31.460938 C 22.59375 31.222656 23.785156 31.097656 25 31.097656 Z M 19.429688 31.996094 C 20.355469 32.898438 22.8125 35.660156 22.761719 39.425781 L 20.109375 39.425781 C 19.933594 36.332031 18.148438 34.25 16.804688 33.109375 C 17.644531 32.667969 18.523438 32.296875 19.429688 31.996094 Z M 15.136719 34.109375 C 16.199219 34.886719 18.074219 36.644531 18.28125 39.425781 L 15.972656 39.425781 C 15.804688 38.265625 15.214844 36.734375 13.496094 35.367188 C 14.019531 34.914062 14.566406 34.496094 15.136719 34.109375 Z M 12.164062 36.648438 C 12.953125 37.234375 13.847656 38.15625 14.125 39.425781 L 10.042969 39.425781 C 10.664062 38.421875 11.375 37.492188 12.164062 36.648438 Z M 41.4375 45.589844 C 40.6875 46.941406 39.257812 47.78125 37.710938 47.78125 L 12.289062 47.78125 C 10.742188 47.78125 9.3125 46.941406 8.5625 45.589844 L 6.152344 41.246094 L 43.847656 41.246094 Z M 41.4375 45.589844 "/>
</g>
</svg>
