<?xml version="1.0" encoding="UTF-8"?>
<svg xmlns="http://www.w3.org/2000/svg" xmlns:xlink="http://www.w3.org/1999/xlink" width="50px" height="50px" viewBox="0 0 50 50" version="1.1">
<g id="surface1">
<path style=" stroke:none;fill-rule:nonzero;fill:rgb(0%,0%,0%);fill-opacity:1;" d="M 30.84375 10.746094 C 30.296875 10.746094 29.847656 11.191406 29.847656 11.742188 L 29.847656 16.59375 C 29.847656 17.144531 30.296875 17.589844 30.84375 17.589844 C 31.394531 17.589844 31.839844 17.144531 31.839844 16.59375 L 31.839844 11.742188 C 31.839844 11.191406 31.394531 10.746094 30.84375 10.746094 Z M 30.84375 10.746094 "/>
<path style=" stroke:none;fill-rule:nonzero;fill:rgb(0%,0%,0%);fill-opacity:1;" d="M 39.632812 14.644531 C 39.246094 14.257812 38.613281 14.257812 38.226562 14.644531 L 36.171875 16.699219 C 35.785156 17.085938 35.785156 17.71875 36.171875 18.105469 C 36.367188 18.300781 36.621094 18.398438 36.878906 18.398438 C 37.132812 18.398438 37.386719 18.300781 37.582031 18.105469 L 39.632812 16.054688 C 40.023438 15.664062 40.023438 15.035156 39.632812 14.644531 Z M 39.632812 14.644531 "/>
<path style=" stroke:none;fill-rule:nonzero;fill:rgb(0%,0%,0%);fill-opacity:1;" d="M 25.890625 16.699219 L 23.839844 14.644531 C 23.449219 14.257812 22.820312 14.257812 22.429688 14.644531 C 22.042969 15.035156 22.042969 15.664062 22.429688 16.054688 L 24.480469 18.105469 C 24.675781 18.300781 24.929688 18.398438 25.1875 18.398438 C 25.441406 18.398438 25.695312 18.300781 25.890625 18.105469 C 26.28125 17.71875 26.28125 17.085938 25.890625 16.699219 Z M 25.890625 16.699219 "/>
<path style=" stroke:none;fill-rule:nonzero;fill:rgb(0%,0%,0%);fill-opacity:1;" d="M 49.003906 19.886719 L 45.375 19.886719 C 45.882812 18.808594 46.144531 17.632812 46.144531 16.414062 C 46.144531 11.921875 42.488281 8.269531 37.996094 8.269531 C 37.992188 8.269531 37.988281 8.269531 37.988281 8.269531 C 36.5625 5.679688 33.832031 4.042969 30.84375 4.042969 C 27.859375 4.042969 25.125 5.679688 23.703125 8.269531 C 23.699219 8.269531 23.699219 8.269531 23.695312 8.269531 C 19.203125 8.269531 15.546875 11.921875 15.546875 16.414062 C 15.546875 17.640625 15.820312 18.804688 16.363281 19.886719 L 13.621094 19.886719 L 13.621094 12.089844 C 13.621094 11.539062 13.175781 11.09375 12.625 11.09375 C 8.542969 11.09375 5.222656 14.414062 5.222656 18.496094 C 5.222656 18.960938 5.269531 19.425781 5.355469 19.886719 L 0.996094 19.886719 C 0.445312 19.886719 0 20.332031 0 20.882812 C 0 34.707031 11.214844 45.957031 25 45.957031 C 38.785156 45.957031 50 34.707031 50 20.882812 C 50 20.332031 49.554688 19.886719 49.003906 19.886719 Z M 23.695312 10.261719 C 23.855469 10.261719 24.03125 10.269531 24.222656 10.285156 C 24.644531 10.320312 25.046875 10.085938 25.21875 9.695312 C 26.207031 7.472656 28.414062 6.035156 30.84375 6.035156 C 33.277344 6.035156 35.484375 7.472656 36.472656 9.695312 C 36.644531 10.085938 37.046875 10.320312 37.46875 10.285156 C 37.660156 10.269531 37.835938 10.261719 37.996094 10.261719 C 41.390625 10.261719 44.152344 13.019531 44.152344 16.414062 C 44.152344 17.671875 43.785156 18.863281 43.089844 19.886719 L 18.691406 19.886719 C 17.914062 18.824219 17.539062 17.683594 17.539062 16.414062 C 17.539062 13.019531 20.300781 10.261719 23.695312 10.261719 Z M 11.628906 13.179688 L 11.628906 19.886719 L 7.394531 19.886719 C 7.277344 19.433594 7.214844 18.964844 7.214844 18.496094 C 7.214844 15.851562 9.121094 13.648438 11.628906 13.179688 Z M 25 43.964844 C 12.644531 43.964844 2.535156 34.144531 2.011719 21.878906 L 47.988281 21.878906 C 47.464844 34.144531 37.355469 43.964844 25 43.964844 Z M 25 43.964844 "/>
<path style=" stroke:none;fill-rule:nonzero;fill:rgb(0%,0%,0%);fill-opacity:1;" d="M 41.691406 31.46875 C 41.246094 31.148438 40.621094 31.246094 40.300781 31.691406 C 36.75 36.574219 31.027344 39.488281 25 39.488281 C 24.449219 39.488281 24.003906 39.933594 24.003906 40.484375 C 24.003906 41.035156 24.449219 41.480469 25 41.480469 C 28.351562 41.480469 31.683594 40.667969 34.640625 39.128906 C 37.496094 37.640625 40.011719 35.472656 41.910156 32.863281 C 42.234375 32.417969 42.136719 31.792969 41.691406 31.46875 Z M 41.691406 31.46875 "/>
<path style=" stroke:none;fill-rule:nonzero;fill:rgb(0%,0%,0%);fill-opacity:1;" d="M 43.871094 26.996094 C 43.359375 26.792969 42.78125 27.042969 42.578125 27.554688 C 42.453125 27.871094 42.316406 28.191406 42.171875 28.5 C 41.941406 29 42.160156 29.589844 42.660156 29.820312 C 42.792969 29.882812 42.9375 29.914062 43.074219 29.914062 C 43.453125 29.914062 43.8125 29.699219 43.980469 29.335938 C 44.136719 28.992188 44.289062 28.640625 44.429688 28.289062 C 44.632812 27.777344 44.382812 27.199219 43.871094 26.996094 Z M 43.871094 26.996094 "/>
</g>
</svg>
